<?xml version="1.0" encoding="utf-8"?>
<!-- Generator: Adobe Illustrator 16.0.4, SVG Export Plug-In . SVG Version: 6.00 Build 0)  -->
<!DOCTYPE svg PUBLIC "-//W3C//DTD SVG 1.1//EN" "http://www.w3.org/Graphics/SVG/1.1/DTD/svg11.dtd">
<svg version="1.1" id="レイヤー_1" xmlns="http://www.w3.org/2000/svg" xmlns:xlink="http://www.w3.org/1999/xlink" x="0px"
	 y="0px" width="841.89px" height="595.275px" viewBox="0 0 841.89 595.275" enable-background="new 0 0 841.89 595.275"
	 xml:space="preserve">
<rect fill="#343434" width="841.89" height="595.275"/>
<rect x="95.945" y="82.638" fill="#735244" width="100" height="100"/>
<rect x="205.945" y="82.638" fill="#C29682" width="100" height="100"/>
<rect x="315.945" y="82.638" fill="#627A9D" width="100" height="100"/>
<rect x="425.945" y="82.638" fill="#576C43" width="100" height="100"/>
<rect x="535.945" y="82.638" fill="#8580B1" width="100" height="100"/>
<rect x="645.945" y="82.638" fill="#76BDA5" width="100" height="100"/>
<rect x="95.945" y="192.638" fill="#D67E2C" width="100" height="100"/>
<rect x="205.945" y="192.638" fill="#505BA6" width="100" height="100"/>
<rect x="315.945" y="192.638" fill="#C15A63" width="100" height="100"/>
<rect x="425.945" y="192.638" fill="#5E3C6C" width="100" height="100"/>
<rect x="535.945" y="192.638" fill="#9DBC40" width="100" height="100"/>
<rect x="645.945" y="192.638" fill="#E0A32E" width="100" height="100"/>
<rect x="95.945" y="302.638" fill="#383D96" width="100" height="100"/>
<rect x="205.945" y="302.638" fill="#469449" width="100" height="100"/>
<rect x="315.945" y="302.638" fill="#AF363C" width="100" height="100"/>
<rect x="425.945" y="302.638" fill="#E7C71F" width="100" height="100"/>
<rect x="535.945" y="302.638" fill="#BB5695" width="100" height="100"/>
<rect x="645.945" y="302.638" fill="#0885A1" width="100" height="100"/>
<rect x="95.945" y="412.638" fill="#F3F3F2" width="100" height="100"/>
<rect x="205.945" y="412.638" fill="#C8C8C8" width="100" height="100"/>
<rect x="315.945" y="412.638" fill="#A0A0A0" width="100" height="100"/>
<rect x="425.945" y="412.638" fill="#7A7A79" width="100" height="100"/>
<rect x="535.945" y="412.638" fill="#555555" width="100" height="100"/>
<rect x="645.945" y="412.638" fill="#343434" width="100" height="100"/>
</svg>
